<?xml version="1.0" standalone="no"?>
<!DOCTYPE svg PUBLIC "-//W3C//DTD SVG 1.1//EN" "http://www.w3.org/Graphics/SVG/1.1/DTD/svg11.dtd" >
<svg xmlns="http://www.w3.org/2000/svg">
<metadata></metadata>
<defs>
<font id="pantonregular" horiz-adv-x="1099" >
<font-face units-per-em="2048" ascent="1536" descent="-512" />
<missing-glyph horiz-adv-x="483" />
<glyph horiz-adv-x="0" />
<glyph unicode="&#xd;" horiz-adv-x="681" />
<glyph unicode=" "  horiz-adv-x="483" />
<glyph unicode="&#x09;" horiz-adv-x="483" />
<glyph unicode="&#xa0;" horiz-adv-x="483" />
<glyph unicode="!" horiz-adv-x="423" d="M125 70v12q0 48 16.5 65t63.5 17h12q47 0 64.5 -17.5t17.5 -64.5v-12q0 -44 -19 -63t-63 -19h-12q-47 0 -63.5 17t-16.5 65zM139 1479q0 37 37 37h72q37 0 37 -37l-19 -1098q0 -37 -37 -37h-36q-34 0 -37 37z" />
<glyph unicode="&#x22;" horiz-adv-x="604" d="M131 1004v417q0 20 7 26.5t28 6.5h57q23 0 30 -6.5t5 -26.5l-18 -417q-2 -21 -8 -27t-29 -6h-37q-23 0 -29 6t-6 27zM358 1004v417q0 20 6.5 26.5t26.5 6.5h60q20 0 27.5 -7t6.5 -26l-20 -417q-2 -20 -8.5 -26.5t-26.5 -6.5h-39q-20 0 -26.5 6.5t-6.5 26.5z" />
<glyph unicode="#" horiz-adv-x="1392" d="M82 428l16 55q9 35 52 35h208l101 338h-211q-23 0 -29 8.5t0 28.5l19 55q9 35 49 35h209l96 320q12 36 47 36h61q39 0 27 -36l-96 -320h321l97 320q12 36 47 36h61q39 0 27 -36l-94 -320h213q23 0 29 -8.5t-1 -28.5l-16 -57q-9 -33 -49 -33h-215l-101 -338h215 q23 0 29 -8.5t0 -28.5l-18 -57q-9 -33 -48 -33h-215l-106 -354q-15 -37 -47 -37h-62q-38 0 -26 37l104 354h-321l-107 -354q-9 -37 -45 -37h-61q-39 0 -27 37l104 354h-210q-36 0 -27 37zM494 518h321l100 338h-321z" />
<glyph unicode="$" horiz-adv-x="1208" d="M102 360q-16 43 27 58l57 20q41 15 56 -24q57 -137 142.5 -198.5t231.5 -61.5q367 0 367 264q-9 93 -44 139.5t-114 69.5q-69 18 -96 22q-12 1 -115 13q-94 8 -148 18t-122 35q-74 24 -117 61q-46 40 -75 107t-29 153q0 182 107.5 285.5t316.5 116.5v129q0 37 37 37h63 q37 0 37 -37v-129q157 -13 254.5 -87.5t171.5 -226.5q21 -40 -23 -57l-57 -27q-36 -15 -55 21q-65 129 -147 184t-226 55q-328 0 -328 -262q6 -87 42.5 -131.5t115.5 -68.5q77 -24 209 -35q93 -8 146.5 -17.5t123.5 -33.5q73 -24 117 -62q46 -41 75.5 -111t29.5 -157 q0 -181 -114.5 -285t-334.5 -117v-133q0 -37 -37 -37h-63q-37 0 -37 37v131q-323 27 -445 342z" />
<glyph unicode="%" horiz-adv-x="1662" d="M74 1034v150q0 142 84.5 221.5t238.5 79.5q157 0 241.5 -79.5t84.5 -221.5v-150q0 -142 -84.5 -220.5t-241.5 -78.5q-155 0 -239 78.5t-84 220.5zM190 1040q0 -92 54 -142t153 -50q100 0 154.5 50t54.5 142v140q0 92 -54.5 142t-154.5 50q-99 0 -153 -50t-54 -142v-140z M243.5 12q-5.5 12 6.5 29l1016 1378q17 23 29 29t44 6h56q44 0 18 -39l-1014 -1378q-17 -25 -30 -31t-50 -6h-47q-23 0 -28.5 12zM940 266v152q0 142 85 221.5t239 79.5q157 0 241 -79.5t84 -221.5v-152q0 -141 -84 -219t-241 -78q-155 0 -239.5 78.5t-84.5 218.5zM1057 274 q0 -93 54 -143.5t153 -50.5t152.5 50.5t53.5 143.5v138q0 93 -53.5 143.5t-152.5 50.5t-153 -50.5t-54 -143.5v-138z" />
<glyph unicode="&#x26;" horiz-adv-x="1353" d="M86 371q0 147 78 243.5t233 169.5q-180 180 -180 349q0 142 102 247q103 103 269 103q156 0 260 -101q102 -102 102 -241q0 -137 -74.5 -222.5t-250.5 -162.5l-19 -8l367 -359l141 137q24 24 49 0l47 -49q20 -21 -2 -43l-145 -141l258 -256q37 -37 -16 -37h-86 q-35 0 -58 23l-188 184q-155 -143 -256 -189q-106 -47 -228 -47q-171 0 -286 115q-117 114 -117 285zM227 369q0 -115 78 -191t191 -76q96 0 178 43q82 40 209 158l-396 387q-136 -63 -198 -135.5t-62 -185.5zM348 1130q0 -52 24 -104.5t58 -91.5q22 -28 86 -92l51 26 q96 41 147 74t79 81.5t28 117.5q0 88 -67 155q-69 66 -166 66q-106 0 -173 -68t-67 -164z" />
<glyph unicode="'" horiz-adv-x="376" d="M131 1004v417q0 20 7 26.5t28 6.5h57q23 0 30 -6.5t5 -26.5l-18 -417q-2 -21 -8 -27t-29 -6h-37q-23 0 -29 6t-6 27z" />
<glyph unicode="(" horiz-adv-x="524" d="M123 203v1048q0 182 69 293t218 178q31 15 49 -20l26 -53q13 -30 -20 -50q-109 -52 -158 -129.5t-49 -209.5v-1065q0 -132 49 -210t158 -130q36 -22 20 -50l-26 -53q-18 -35 -49 -20q-149 67 -218 178t-69 293z" />
<glyph unicode=")" horiz-adv-x="524" d="M51 -195q-13 29 21 50q109 52 158 130t49 210v1065q0 132 -49 209.5t-158 129.5q-34 21 -21 50l27 53q18 35 49 20q149 -67 218 -178t69 -293v-1048q0 -182 -69 -293t-218 -178q-31 -15 -49 20z" />
<glyph unicode="*" horiz-adv-x="776" d="M127 1165l12 43q12 22 33 13l199 -82l-15 215q-6 24 21 24h43q28 0 22 -24l-16 -215l201 80q22 13 35 -13l12 -41q6 -24 -19 -30l-211 -50l140 -167q22 -16 -2 -33l-37 -25q-21 -18 -33 6l-113 183l-114 -181q-10 -26 -35 -10l-35 27q-23 16 -4 35l141 165l-207 52 q-26 3 -18 28z" />
<glyph unicode="+" horiz-adv-x="1161" d="M96 645v49q0 23 9 32t32 9h377v377q0 23 9 32t32 9h49q23 0 32 -9t9 -32v-377h379q39 0 39 -41v-49q0 -23 -8 -31t-31 -8h-379v-379q0 -23 -9 -32t-32 -9h-49q-23 0 -32 9t-9 32v379h-377q-24 0 -32.5 8t-8.5 31z" />
<glyph unicode="," horiz-adv-x="370" d="M55 -219l70 340q1 26 12.5 35.5t38.5 9.5h53q56 0 39 -45l-116 -332q-9 -37 -46 -37h-26q-31 0 -25 29z" />
<glyph unicode="-" horiz-adv-x="864" d="M127 518v51q0 41 39 41h530q23 0 32 -9t9 -32v-51q0 -23 -9 -32t-32 -9h-530q-39 0 -39 41z" />
<glyph unicode="." horiz-adv-x="380" d="M102 70v12q0 47 17.5 64.5t64.5 17.5h13q47 0 63 -17t16 -65v-12q0 -47 -17 -64.5t-62 -17.5h-13q-47 0 -64.5 17.5t-17.5 64.5z" />
<glyph unicode="/" horiz-adv-x="835" d="M80 -88l559 1509q11 33 51 33h68q35 0 24 -33l-561 -1509q-15 -35 -49 -35h-68q-36 0 -24 35z" />
<glyph unicode="0" horiz-adv-x="1282" d="M119 446v562q0 222 138 348.5t384 126.5t384 -126.5t138 -348.5v-562q0 -222 -138 -348.5t-384 -126.5t-384 126.5t-138 348.5zM266 446q0 -160 98.5 -248.5t276.5 -88.5t275.5 88.5t97.5 248.5v562q0 160 -97.5 249t-275.5 89t-276.5 -89t-98.5 -249v-562z" />
<glyph unicode="1" horiz-adv-x="909" d="M76 1104q-17 33 18 53l500 281q29 16 57 16h56q23 0 32 -9t9 -32v-1372q0 -23 -9 -32t-32 -9h-66q-25 0 -34 9t-9 32v1233l-432 -240q-40 -21 -60 15z" />
<glyph unicode="2" horiz-adv-x="1208" d="M111 41v149q7 124 50.5 200t135.5 134q79 49 111 64q46 21 129 51q210 82 280 131q138 102 141 268q0 131 -88 219q-89 89 -229 89q-144 0 -234.5 -59.5t-148.5 -186.5q-11 -24 -19.5 -28t-31.5 3l-64 25q-39 14 -24 51q141 332 526 332q207 0 340 -127 q129 -126 129 -312q0 -115 -34 -197t-111 -142q-79 -65 -162 -105q-68 -34 -227 -98q-30 -11 -70.5 -27t-46.5 -18q-30 -13 -92 -54q-105 -67 -105 -184v-80h795q23 0 32 -9t9 -32v-57q0 -23 -9 -32t-32 -9h-907q-43 0 -43 41z" />
<glyph unicode="3" horiz-adv-x="1226" d="M111 328q-11 39 24 53l64 22q38 14 53 -26q44 -143 131 -205.5t260 -62.5q171 0 257.5 75.5t86.5 218.5q0 129 -71 201t-203 72h-297q-41 0 -41 39v55q0 23 9 32t32 9h278q120 0 187 69.5t67 182.5q0 138 -78 210.5t-231 72.5q-164 0 -247.5 -60.5t-127.5 -202.5 q-12 -33 -53 -24l-64 22q-36 14 -24 52q56 181 178.5 265.5t341.5 84.5q220 0 336.5 -106t116.5 -300q0 -241 -185 -321q230 -82 230 -355q0 -206 -125.5 -318t-372.5 -112q-223 0 -349 87.5t-183 269.5z" />
<glyph unicode="4" horiz-adv-x="1249" d="M51 436v43q0 31 15 49l733 914q22 28 57 28h64q25 0 34 -8.5t9 -31.5v-902h188q23 0 32 -9t9 -32v-51q0 -23 -9 -32t-32 -9h-188v-354q0 -23 -9 -32t-32 -9h-60q-23 0 -32 9t-9 32v354h-729q-23 0 -32 9t-9 32zM227 528h594v738z" />
<glyph unicode="5" horiz-adv-x="1198" d="M100 293q-14 36 23 51l67 25q36 16 52 -27q85 -233 391 -233q152 0 245 90.5t93 234.5q0 139 -86.5 223t-239.5 84h-442q-51 0 -45 50l61 600q1 36 17 49.5t53 13.5h743q23 0 32 -9t9 -32v-57q0 -23 -9 -32t-32 -9h-674l-43 -436h338q226 0 350.5 -122.5t124.5 -322.5 q0 -197 -133 -330q-135 -135 -362 -135q-412 0 -533 324z" />
<glyph unicode="6" horiz-adv-x="1271" d="M117 487v480q0 251 135 383.5t393 132.5q388 0 508 -314q12 -37 -27 -51l-61 -22q-24 -7 -32 -2.5t-19 28.5q-91 224 -369 224q-186 0 -283.5 -96.5t-97.5 -282.5v-170q195 63 402 63q257 0 382.5 -110.5t125.5 -333.5q0 -209 -140.5 -327t-388.5 -118q-255 0 -391.5 135 t-136.5 381zM264 487q0 -183 97.5 -280.5t283.5 -97.5q183 0 282 79.5t99 227.5q0 156 -90 230.5t-281 74.5q-233 0 -391 -70v-164z" />
<glyph unicode="7" horiz-adv-x="1062" d="M55 1356v57q0 24 8 32.5t31 8.5h903q39 0 39 -41v-41q0 -24 -10 -57l-567 -1278q-10 -24 -23.5 -30.5t-52.5 -6.5h-66q-35 0 -20 41l569 1274h-772q-23 0 -31 8.5t-8 32.5z" />
<glyph unicode="8" horiz-adv-x="1261" d="M98 346q0 273 332 393q-144 59 -216.5 144t-72.5 219q0 182 129.5 281.5t358.5 99.5q242 0 366.5 -94t124.5 -277q0 -256 -286 -364q168 -60 248.5 -144.5t80.5 -234.5q0 -191 -132 -294.5t-402 -103.5q-531 0 -531 375zM248 360q0 -260 383 -260q377 0 377 267 q12 119 -109 208q-23 17 -84 39q-13 5 -86 29q-8 3 -104 29q-10 3 -27 7t-27 7q-323 -86 -323 -326zM291 1100q0 -140 108 -201q53 -31 100 -48t140 -42l47 -14q52 15 80 26.5t84 44.5q125 73 125 234q0 124 -88 189t-256 65q-162 0 -251 -66t-89 -188z" />
<glyph unicode="9" horiz-adv-x="1271" d="M98 1038q0 209 140.5 327t388.5 118q255 0 391.5 -135t136.5 -381v-480q0 -251 -135 -383.5t-393 -132.5q-388 0 -508 314q-12 37 26 51l62 22q24 7 32 2.5t19 -28.5q91 -223 369 -223q186 0 282.5 96t96.5 282v170q-186 -63 -400 -63q-257 0 -382.5 110.5t-125.5 333.5z M246 1038q0 -156 89.5 -230.5t280.5 -74.5q241 0 390 70v164q0 184 -97 281.5t-282 97.5q-183 0 -282 -80t-99 -228z" />
<glyph unicode=":" horiz-adv-x="428" d="M127 70v12q0 48 16.5 65t63.5 17h12q47 0 64.5 -17.5t17.5 -64.5v-12q0 -45 -18 -63.5t-64 -18.5h-12q-47 0 -63.5 17t-16.5 65zM127 901v14q0 47 16.5 63.5t63.5 16.5h12q47 0 64.5 -17.5t17.5 -62.5v-14q0 -45 -17.5 -62.5t-64.5 -17.5h-12q-46 0 -63 17.5t-17 62.5z " />
<glyph unicode=";" horiz-adv-x="485" d="M111 -219l69 340q4 26 15.5 35.5t37.5 9.5h54q54 0 39 -45l-117 -332q-12 -37 -47 -37h-25q-18 0 -23 5.5t-3 23.5zM178 901v14q0 47 16.5 63.5t63.5 16.5h12q47 0 64.5 -17.5t17.5 -62.5v-14q0 -45 -17.5 -62.5t-64.5 -17.5h-12q-46 0 -63 17.5t-17 62.5z" />
<glyph unicode="&#x3c;" horiz-adv-x="1017" d="M74 649v37q0 36 32 53l742 402q45 20 45 -31v-53q0 -31 -7.5 -43.5t-33.5 -24.5l-602 -315v-6l602 -318q27 -12 34 -23.5t7 -43.5v-58q0 -50 -45 -30l-742 401q-32 17 -32 53z" />
<glyph unicode="=" horiz-adv-x="1224" d="M129 440v54q0 41 39 41h887q23 0 32 -9t9 -32v-54q0 -23 -9 -32t-32 -9h-887q-39 0 -39 41zM129 846v53q0 39 39 39h887q41 0 41 -39v-53q0 -23 -9 -32t-32 -9h-887q-39 0 -39 41z" />
<glyph unicode="&#x3e;" horiz-adv-x="1017" d="M125 225v54q0 32 7 43.5t32 23.5l604 318v6l-602 315q-26 12 -33.5 24t-7.5 44v57q0 54 45 31l739 -402q35 -18 35 -51v-39q0 -35 -35 -53l-739 -399q-45 -23 -45 28z" />
<glyph unicode="?" horiz-adv-x="1142" d="M80 1178q132 338 520 338q223 0 356 -121q131 -119 131 -301q0 -193 -96 -301q-53 -57 -82 -80t-106 -72q-4 -2 -9 -5.5t-8.5 -5.5t-5.5 -3q-97 -64 -139.5 -123t-42.5 -148q0 -23 -8 -31t-31 -8h-47q-23 0 -31 8t-8 31q0 90 27 157t72 112.5t124 97.5q86 58 95 65 q23 17 71 66q80 83 80 233q0 131 -93.5 213t-252.5 82q-279 0 -381 -252q-11 -23 -19.5 -27t-31.5 3l-60 18q-39 14 -24 54zM449 70v12q0 47 17 64.5t64 17.5h13q47 0 63.5 -17t16.5 -65v-12q0 -47 -17.5 -64.5t-62.5 -17.5h-13q-47 0 -64 17.5t-17 64.5z" />
<glyph unicode="@" horiz-adv-x="1845" d="M98 524v148q0 377 217 594q214 217 603 217q395 0 608 -219t213 -592v-148q0 -204 -103 -319q-101 -113 -252 -113q-58 0 -89.5 19t-55.5 65q-177 -74 -375 -74q-176 0 -265 87t-89 251v314q0 164 89 251t265 87q220 0 365 -62q42 -17 55.5 -36t13.5 -60v-655 q0 -82 86 -82q108 0 176 83.5t68 241.5v150q0 329 -184 522q-184 190 -526 190q-333 0 -521 -188q-188 -191 -188 -524v-150q0 -332 185 -512t524 -180q181 0 440 55q22 6 22 -14v-55q0 -25 -22 -31q-192 -55 -440 -55q-392 0 -606 207.5t-214 586.5zM629 442 q0 -229 250 -229q178 0 301 63v619q0 34 -35 49q-110 39 -266 39q-250 0 -250 -233v-308z" />
<glyph unicode="A" horiz-adv-x="1312" d="M41 39l549 1386q12 35 51 35h61q43 0 54 -33l549 -1388q4 -11 4 -18t-3 -11q-7 -10 -30 -10h-59q-65 0 -74 37l-154 389h-641l-153 -389q-6 -23 -20.5 -30t-51.5 -7h-55q-31 0 -31 22q0 7 4 17zM391 549h557l-246 629q-28 86 -28 141h-10q0 -61 -25 -141z" />
<glyph unicode="B" horiz-adv-x="1316" d="M160 41v1372q0 23 9 32t32 9h577q190 0 293 -96.5t103 -276.5q0 -245 -193 -327v-4q244 -65 244 -359q0 -185 -113.5 -288t-310.5 -103h-600q-23 0 -32 9t-9 32zM307 139h488q133 0 204 68q70 67 70 199q0 130 -70 200q-71 68 -204 68h-488v-535zM307 807h453 q128 0 195 64.5t67 191.5q0 252 -262 252h-453v-508z" />
<glyph unicode="C" horiz-adv-x="1302" d="M117 485v484q0 243 145.5 378.5t415.5 135.5q227 0 358 -85.5t187 -264.5q5 -14 5 -24q0 -6 -2 -11q-5 -12 -28 -19l-63 -22q-9 -2 -16 -2q-27 0 -38 26q-43 138 -137.5 201.5t-265.5 63.5q-200 0 -306 -97.5t-106 -277.5v-488q0 -178 107.5 -276t304.5 -98 q175 0 269.5 64t137.5 206q12 29 39 29q7 0 15 -2l63 -25q28 -11 28 -35q0 -8 -3 -16q-56 -182 -188.5 -270.5t-360.5 -88.5q-267 0 -414 135.5t-147 378.5z" />
<glyph unicode="D" horiz-adv-x="1337" d="M160 41v1372q0 23 9 32t32 9h432q281 0 437.5 -144t156.5 -397v-372q0 -253 -156.5 -397t-437.5 -144h-432q-23 0 -32 9t-9 32zM307 139h326q214 0 329 104.5t115 297.5v372q0 193 -115 297.5t-329 104.5h-326v-1176z" />
<glyph unicode="E" horiz-adv-x="1173" d="M160 41v1372q0 23 9 32t32 9h829q39 0 39 -41v-57q0 -41 -39 -41h-723v-508h631q39 0 39 -41v-57q0 -41 -39 -41h-631v-529h750q39 0 39 -41v-57q0 -41 -39 -41h-856q-23 0 -32 9t-9 32z" />
<glyph unicode="F" horiz-adv-x="1136" d="M160 41v1372q0 23 9 32t32 9h829q39 0 39 -41v-57q0 -41 -39 -41h-723v-531h623q23 0 31 -8t8 -31v-57q0 -41 -39 -41h-623v-606q0 -24 -8 -32.5t-31 -8.5h-67q-23 0 -32 9t-9 32z" />
<glyph unicode="G" horiz-adv-x="1341" d="M117 487v482q0 243 145.5 378.5t415.5 135.5q227 0 358 -85.5t187 -264.5q8 -23 3 -35t-28 -19l-63 -22q-9 -2 -16 -2q-27 0 -38 26q-43 138 -137.5 201.5t-265.5 63.5q-201 0 -307.5 -97.5t-106.5 -277.5v-484q0 -181 108 -279.5t308 -98.5q196 0 306 94.5t110 257.5 v153h-396q-23 0 -32 9t-9 32v58q0 23 9 32t32 9h500q23 0 32 -9t9 -32v-252q0 -228 -147.5 -359t-413.5 -131q-270 0 -416.5 136.5t-146.5 379.5z" />
<glyph unicode="H" horiz-adv-x="1394" d="M160 41v1372q0 23 9 32t32 9h67q23 0 31 -8.5t8 -32.5v-606h780v606q0 23 9 32t32 9h68q39 0 39 -41v-1372q0 -41 -39 -41h-68q-23 0 -32 9t-9 32v627h-780v-627q0 -24 -8 -32.5t-31 -8.5h-67q-23 0 -32 9t-9 32z" />
<glyph unicode="I" horiz-adv-x="466" d="M160 41v1372q0 23 9 32t32 9h67q23 0 31 -8.5t8 -32.5v-1372q0 -24 -8 -32.5t-31 -8.5h-67q-23 0 -32 9t-9 32z" />
<glyph unicode="J" horiz-adv-x="1167" d="M55 352q-4 11 -4 19q0 24 29 35l65 22q10 4 18 4q23 0 34 -31q33 -149 114.5 -220.5t227.5 -71.5q167 0 256.5 90.5t89.5 255.5v960q0 23 8 31t31 8h69q41 0 41 -39v-958q0 -230 -129.5 -359t-365.5 -129q-393 0 -484 383z" />
<glyph unicode="K" horiz-adv-x="1247" d="M160 41v1372q0 23 9 32t32 9h67q23 0 31 -8.5t8 -32.5v-608h197h45l459 614q27 35 82 35h73q22 0 28 -13t-7 -26l-486 -639q155 -44 248 -229l260 -506q7 -13 7 -22q0 -19 -29 -19h-66q-39 0 -54.5 7t-27.5 30l-227 455q-50 100 -113 139t-180 39h-209v-629 q0 -24 -8 -32.5t-31 -8.5h-67q-23 0 -32 9t-9 32z" />
<glyph unicode="L" horiz-adv-x="1067" d="M160 41v1372q0 23 9 32t32 9h67q23 0 31 -8.5t8 -32.5v-1274h694q39 0 39 -41v-57q0 -41 -39 -41h-800q-23 0 -32 9t-9 32z" />
<glyph unicode="M" horiz-adv-x="1638" d="M160 41v1372q0 23 9 32t32 9h53q40 0 57 -33l508 -899l504 897q12 23 22 29t35 6h60q23 0 32 -9t9 -32v-1372q0 -23 -9 -32t-32 -9h-62q-23 0 -32 9t-9 32l2 836q0 179 25 362h-8q-58 -140 -158 -319l-311 -549q-15 -31 -47 -31h-41q-33 0 -49 31l-316 555 q-75 127 -149 315h-9q23 -205 23 -367v-833q0 -23 -9 -32t-32 -9h-57q-23 0 -32 9t-9 32z" />
<glyph unicode="N" horiz-adv-x="1415" d="M160 41v1372q0 23 9 32t32 9h65q29 0 43 -20l637 -920q53 -77 109 -178q58 -110 73 -131h7q0 9 -13 155q-12 132 -12 226v829q0 39 41 39h63q23 0 32 -9t9 -32v-1372q0 -23 -9 -32t-32 -9h-65q-30 0 -43 23l-653 938q-45 66 -99 172q-42 81 -65 120h-8q0 -16 12 -145 q10 -143 10 -217v-850q0 -41 -39 -41h-63q-23 0 -32 9t-9 32z" />
<glyph unicode="O" horiz-adv-x="1357" d="M117 485v484q0 243 146.5 378.5t416.5 135.5q268 0 414.5 -135.5t146.5 -378.5v-484q0 -243 -146.5 -378.5t-414.5 -135.5q-270 0 -416.5 135.5t-146.5 378.5zM264 485q0 -180 107.5 -278t308.5 -98q200 0 307 97.5t107 278.5v484q0 181 -107 279t-307 98t-308 -98 t-108 -279v-484z" />
<glyph unicode="P" horiz-adv-x="1273" d="M160 41v1372q0 23 9 32t32 9h547q216 0 339 -121t123 -334t-123 -332.5t-339 -119.5h-441v-506q0 -24 -8 -32.5t-31 -8.5h-67q-23 0 -32 9t-9 32zM307 684h428q150 0 236 84t86 231t-86 231.5t-236 84.5h-428v-631z" />
<glyph unicode="Q" horiz-adv-x="1382" d="M117 485v484q0 243 146.5 378.5t416.5 135.5q268 0 414.5 -135.5t146.5 -378.5v-484q0 -216 -119 -350l142 -166q11 -13 11 -27q0 -15 -15 -30l-46 -37q-15 -13 -28 -13q-16 0 -29 17l-147 174q-125 -82 -330 -82q-270 0 -416.5 135.5t-146.5 378.5zM264 485 q0 -180 107.5 -278t308.5 -98q200 0 307 97.5t107 278.5v484q0 181 -107 279t-307 98t-308 -98t-108 -279v-484z" />
<glyph unicode="R" horiz-adv-x="1318" d="M160 41v1372q0 23 9 32t32 9h579q203 0 316.5 -111.5t113.5 -312.5q0 -167 -86.5 -271.5t-242.5 -129.5q81 -38 133 -142l229 -446q10 -15 10 -24q0 -17 -30 -17h-68q-65 0 -80 37l-198 395q-50 100 -113 139t-180 39h-277v-569q0 -24 -8 -32.5t-31 -8.5h-67q-23 0 -32 9 t-9 32zM307 750h459q137 0 214 73t77 207q0 137 -76 211t-215 74h-459v-565z" />
<glyph unicode="S" horiz-adv-x="1282" d="M96 324q-3 10 -3 18q0 26 28 37l63 22q9 3 18 3q23 0 36 -27q114 -266 413 -266q408 0 408 286q-6 93 -46 143.5t-124 77.5q-82 26 -230 41q-49 5 -155 21q-43 7 -142 39q-83 27 -129 67q-51 43 -82.5 114t-31.5 163q0 194 140 307t388 113q207 0 333 -75t206 -241 q5 -11 5 -20q0 -21 -28 -33l-63 -29q-20 -8 -30.5 -4.5t-22.5 23.5q-62 124 -155.5 180.5t-244.5 56.5q-183 0 -280 -69.5t-97 -200.5q6 -93 50 -144.5t135 -78.5q59 -20 107.5 -28.5t131.5 -16.5q102 -12 158.5 -23t126.5 -37q74 -26 121 -67q47 -43 77.5 -114.5 t30.5 -160.5q0 -204 -144.5 -317t-412.5 -113q-218 0 -350 85.5t-205 267.5z" />
<glyph unicode="T" horiz-adv-x="1112" d="M27 1356v57q0 23 9 32t32 9h976q23 0 32 -9t9 -32v-57q0 -23 -9 -32t-32 -9h-413v-1274q0 -23 -9 -32t-32 -9h-68q-23 0 -32 9t-9 32v1274h-413q-23 0 -32 9t-9 32z" />
<glyph unicode="U" horiz-adv-x="1396" d="M147 496v917q0 23 9 32t32 9h68q23 0 32 -9t9 -32v-919q0 -185 102.5 -285t298.5 -100t299 100t103 285v919q0 23 9 32t32 9h67q23 0 32 -9t9 -32v-917q0 -249 -142.5 -388t-408.5 -139t-408.5 139t-142.5 388z" />
<glyph unicode="V" horiz-adv-x="1273" d="M43 1415q-4 10 -4 17q0 22 31 22h59q62 0 74 -37l401 -1075q22 -69 29 -96q9 -35 20 -68h6q15 46 21 68q15 58 27 96l401 1075q9 37 72 37h59q30 0 30 -23q0 -7 -3 -16l-529 -1380q-15 -35 -53 -35h-61q-40 0 -54 33z" />
<glyph unicode="W" horiz-adv-x="1804" d="M55 1415q-2 8 -2 14q0 25 29 25h82q27 0 38 -7t17 -30l250 -989q5 -22 23 -123q13 -93 14 -96h8q26 163 43 219l272 967q9 37 56 37h63q47 0 56 -37l268 -969q16 -52 45 -217h8q19 136 37 215l250 993q4 23 15 30t38 7h72q29 0 29 -23q0 -7 -3 -16l-364 -1380 q-9 -35 -53 -35h-64q-44 0 -53 33l-273 991q-26 106 -41 201h-8q-8 -74 -41 -199l-276 -991q-9 -35 -51 -35h-66q-42 0 -51 33z" />
<glyph unicode="X" horiz-adv-x="1263" d="M32 13q-1 3 -1 7q0 10 10 23l500 696l-486 676q-11 13 -5 26t26 13h82q33 0 47 -6t31 -29l401 -563l403 563q13 23 27 29t47 6h82q20 0 26 -13t-5 -26l-488 -676l504 -696q9 -12 9 -22q0 -4 -1 -8q-5 -13 -29 -13h-82q-38 0 -51.5 6.5t-25.5 30.5l-422 588l-416 -588 q-13 -24 -27.5 -30.5t-50.5 -6.5h-78q-23 0 -27 13z" />
<glyph unicode="Y" horiz-adv-x="1284" d="M33 1442q6 12 26 12h84q38 0 52 -6.5t26 -30.5l428 -674l432 674q12 24 26 30.5t52 6.5h78q20 0 26 -12q2 -4 2 -9q0 -9 -8 -20l-534 -823v-549q0 -23 -9 -32t-32 -9h-68q-23 0 -32 9t-9 32v551l-534 821q-8 11 -8 20q0 5 2 9z" />
<glyph unicode="Z" horiz-adv-x="1159" d="M68 41v55q0 33 14 47l809 1172h-774q-23 0 -32 9t-9 32v57q0 23 9 32t32 9h919q23 0 32 -9t9 -32v-55q0 -25 -14 -45l-811 -1174h805q41 0 41 -39v-59q0 -23 -9 -32t-32 -9h-951q-38 0 -38 41z" />
<glyph unicode="[" horiz-adv-x="557" d="M137 -262v1978q0 23 7 30t30 7h315q23 0 29 -6.5t6 -30.5v-51q0 -24 -6 -30.5t-29 -6.5h-219v-1802h219q22 0 28.5 -7t6.5 -28v-53q0 -24 -6 -30.5t-29 -6.5h-315q-23 0 -30 7t-7 30z" />
<glyph unicode="\" horiz-adv-x="835" d="M78 1419q-12 35 24 35h70q34 0 49 -35l561 -1507q12 -35 -24 -35h-70q-34 0 -49 35z" />
<glyph unicode="]" horiz-adv-x="557" d="M33 -209q0 23 6.5 29t30.5 6h217v1802h-217q-23 0 -30 7t-7 30v51q0 23 7 30t30 7h313q23 0 30 -7t7 -30v-1978q0 -23 -7 -30t-30 -7h-313q-23 0 -30 7t-7 30v53z" />
<glyph unicode="^" horiz-adv-x="1212" d="M145 1110l422 516q26 33 51 33h39q11 0 18.5 -2.5t10.5 -5t10 -11t13 -14.5l426 -516q39 -45 -21 -45h-61q-33 0 -45 5t-29 28l-338 420h-8l-336 -420q-17 -23 -29 -28t-45 -5h-57q-54 0 -21 45z" />
<glyph unicode="_" horiz-adv-x="1036" d="M55 -41q0 41 39 41h846q23 0 32 -9t9 -32v-51q0 -23 -9 -32t-32 -9h-846q-39 0 -39 41v51z" />
<glyph unicode="`" horiz-adv-x="526" d="M40 1426.5q3 7.5 13 19.5l31 37q22 29 68 2l331 -205q24 -15 4 -41l-20 -25q-16 -16 -47 -2l-361 191q-13 4 -17.5 10t-1.5 13.5z" />
<glyph unicode="a" horiz-adv-x="1048" d="M76 289q0 173 102.5 245t347.5 72q93 0 269 -20v94q0 140 -64 210.5t-213 70.5q-204 0 -287 -150q-22 -32 -51 -16l-49 20q-25 10 -25 31q0 10 5 22q114 215 411 215q218 0 314 -104.5t96 -300.5v-537q0 -52 -15 -74.5t-59 -41.5q-127 -54 -340 -54q-255 0 -348 78 q-94 76 -94 240zM217 291q0 -109 63 -157t228 -48q160 0 248 33q25 11 32 20.5t7 38.5v295q-195 19 -283 19q-160 0 -227.5 -47t-67.5 -154z" />
<glyph unicode="b" d="M131 145v1334q0 37 37 37h65q37 0 37 -37v-459q186 63 324 63q403 0 403 -401v-291q0 -420 -440 -420q-210 0 -346 62q-51 24 -65.5 43.5t-14.5 68.5zM270 190q0 -25 6 -34t31 -19q103 -41 240 -41q313 0 313 297v285q0 278 -285 278q-148 0 -305 -65v-701z" />
<glyph unicode="c" horiz-adv-x="1054" d="M100 375v305q0 193 114 298t333 105q345 0 428 -276q3 -9 3 -17q0 -25 -28 -36l-53 -19q-9 -3 -16 -3q-23 0 -35 28q-33 105 -104 153t-199 48q-148 0 -226.5 -72.5t-78.5 -204.5v-313q0 -132 79 -205.5t226 -73.5q241 0 305 211q12 27 38 27q7 0 15 -2l53 -17 q29 -11 29 -35q0 -8 -4 -18q-95 -287 -440 -287q-213 0 -326 106t-113 298z" />
<glyph unicode="d" d="M102 381v293q0 199 102 304t302 105q149 0 323 -59v455q0 37 37 37h64q20 0 28.5 -8.5t8.5 -28.5v-1336q0 -49 -15 -69.5t-65 -40.5q-145 -62 -355 -62q-430 0 -430 410zM240 383q0 -287 305 -287q142 0 246 39q25 11 31.5 19.5t6.5 33.5v707q-155 61 -299 61 q-290 0 -290 -286v-287z" />
<glyph unicode="e" horiz-adv-x="1085" d="M96 385v266q0 206 117 319t336 113t337 -114t118 -310v-112q0 -58 -62 -58h-709v-118q0 -134 79.5 -207.5t228.5 -73.5q226 0 321 170q15 21 35 21q12 0 25 -7l43 -22q23 -12 23 -31q0 -12 -9 -28q-124 -222 -438 -222q-219 0 -332 109t-113 305zM233 596h633v72 q0 141 -81.5 219t-235.5 78q-152 0 -234 -78t-82 -219v-72z" />
<glyph unicode="f" horiz-adv-x="722" d="M16 963v53q0 20 8.5 28.5t28.5 8.5h183v51q0 219 95.5 313t317.5 99h17q22 0 29 -8t7 -29v-54q0 -39 -36 -39q-168 0 -230 -59q-63 -57 -63 -223v-51h297q22 0 29.5 -8t7.5 -29v-53q0 -37 -37 -37h-297v-889q0 -20 -8.5 -28.5t-28.5 -8.5h-64q-36 0 -36 37v889h-183 q-37 0 -37 37z" />
<glyph unicode="g" horiz-adv-x="1097" d="M100 395v269q0 419 443 419q200 0 346 -61q50 -24 64 -43.5t14 -69.5v-972q0 -443 -432 -443q-285 0 -406 219q-11 16 -11 29q0 20 25 33l45 22q14 8 26 8q20 0 34 -22q89 -164 282 -164q299 0 299 311v127q-165 -61 -323 -61q-406 0 -406 399zM240 399q0 -276 282 -276 q150 0 307 59v682q0 25 -6 34.5t-32 19.5q-99 38 -240 38q-311 0 -311 -294v-263z" />
<glyph unicode="h" horiz-adv-x="1128" d="M137 37v1442q0 21 7.5 29t29.5 8h64q20 0 28 -8.5t8 -28.5v-453q123 57 322 57q408 0 408 -401v-645q0 -37 -37 -37h-66q-37 0 -37 37v641q0 278 -286 278q-183 0 -304 -59v-860q0 -20 -8 -28.5t-28 -8.5h-64q-22 0 -29.5 8t-7.5 29z" />
<glyph unicode="i" horiz-adv-x="409" d="M123 1339v15q0 43 16.5 59.5t59.5 16.5h12q43 0 59.5 -16.5t16.5 -59.5v-15q0 -43 -16.5 -59t-59.5 -16h-12q-43 0 -59.5 16t-16.5 59zM135 37v979q0 37 37 37h66q36 0 36 -37v-979q0 -37 -36 -37h-66q-37 0 -37 37z" />
<glyph unicode="j" horiz-adv-x="411" d="M-188 -381q0 39 36 39q156 0 222.5 79t66.5 247v1032q0 21 7.5 29t29.5 8h64q20 0 28 -8.5t8 -28.5v-1034q0 -227 -102 -340t-324 -113q-20 0 -28 8.5t-8 28.5v53zM123 1339v15q0 43 17 59.5t61 16.5h10q44 0 61 -16.5t17 -59.5v-15q0 -43 -17 -59t-61 -16h-10 q-44 0 -61 16t-17 59z" />
<glyph unicode="k" horiz-adv-x="1038" d="M137 39v1440q0 23 7.5 30t31.5 7h60q23 0 30.5 -7t7.5 -30v-875h197h18l330 420q13 20 25.5 24.5t46.5 4.5h57q36 0 36 -18q0 -10 -11 -25l-346 -432q110 -27 178 -166l184 -369q9 -17 9 -27q0 -4 -2 -6q-4 -10 -29 -10h-62q-30 0 -41 6t-22 27l-156 319 q-31 66 -77.5 95.5t-121.5 29.5h-213v-438q0 -23 -7.5 -31t-30.5 -8h-60q-23 0 -31 8t-8 31z" />
<glyph unicode="l" horiz-adv-x="423" d="M143 37v1442q0 20 8.5 28.5t28.5 8.5h64q22 0 29.5 -8t7.5 -29v-1442q0 -21 -7.5 -29t-29.5 -8h-64q-20 0 -28.5 8.5t-8.5 28.5z" />
<glyph unicode="m" horiz-adv-x="1673" d="M131 37v864q0 47 16.5 72t61.5 45q148 65 328 65q173 0 264 -88q192 88 370 88q375 0 375 -389v-657q0 -21 -7.5 -29t-29.5 -8h-63q-20 0 -28.5 8.5t-8.5 28.5v651q0 268 -254 268q-149 0 -278 -69q38 -72 38 -193v-657q0 -21 -7 -29t-29 -8h-64q-20 0 -28.5 8.5 t-8.5 28.5v651q0 268 -260 268q-119 0 -215 -41q-33 -14 -33 -55v-823q0 -37 -37 -37h-65q-37 0 -37 37z" />
<glyph unicode="n" horiz-adv-x="1124" d="M131 37v864q0 48 15.5 70.5t62.5 42.5q166 69 381 69q407 0 407 -401v-645q0 -37 -36 -37h-64q-20 0 -28.5 8.5t-8.5 28.5v641q0 278 -287 278q-150 0 -272 -45q-31 -15 -31 -51v-823q0 -37 -37 -37h-65q-37 0 -37 37z" />
<glyph unicode="o" horiz-adv-x="1103" d="M102 346v361q0 177 119.5 276.5t329.5 99.5q211 0 332 -100t121 -276v-361q0 -176 -121 -275.5t-332 -99.5q-209 0 -329 100.5t-120 274.5zM240 346q0 -116 84.5 -183t226.5 -67q146 0 229.5 66.5t83.5 183.5v361q0 117 -83.5 184t-229.5 67q-143 0 -227 -67t-84 -184 v-361z" />
<glyph unicode="p" d="M131 -414v1323q0 49 16 72t66 43q151 59 358 59q426 0 426 -409v-295q0 -408 -419 -408q-134 0 -308 70v-455q0 -37 -37 -37h-65q-37 0 -37 37zM270 168q153 -72 297 -72q293 0 293 287v287q0 286 -305 286q-145 0 -246 -38q-26 -10 -32.5 -20.5t-6.5 -35.5v-694z" />
<glyph unicode="q" d="M102 371v293q0 419 441 419q203 0 346 -61q50 -24 64 -43.5t14 -69.5v-1323q0 -20 -8.5 -28.5t-28.5 -8.5h-64q-37 0 -37 37v457q-179 -72 -323 -72q-404 0 -404 400zM240 373q0 -277 284 -277q146 0 305 72v694q0 25 -7.5 35.5t-33.5 20.5q-99 38 -237 38 q-311 0 -311 -294v-289z" />
<glyph unicode="r" horiz-adv-x="700" d="M131 37v868q0 47 16.5 70.5t61.5 44.5q160 60 371 63h63q37 0 37 -36v-54q0 -37 -37 -37h-68q-154 0 -270 -43q-35 -15 -35 -53v-823q0 -37 -37 -37h-65q-37 0 -37 37z" />
<glyph unicode="s" horiz-adv-x="1015" d="M94 225q-4 11 -4 19q0 22 27 30l53 19q35 9 49 -23q67 -178 313 -178q289 0 289 187q0 95 -65.5 132.5t-231.5 55.5q-84 8 -128.5 16t-102.5 27q-63 20 -98 51q-84 73 -84 215q0 144 104.5 225.5t298.5 81.5q320 0 418 -223q7 -13 7 -23q0 -20 -26 -30l-51 -23 q-33 -15 -51 19q-36 81 -103.5 118t-191.5 37q-268 0 -268 -178q6 -74 33.5 -110.5t91.5 -53.5q67 -18 184 -28q94 -7 157.5 -23t123.5 -47q118 -63 118 -233q0 -150 -107 -232t-312 -82q-344 0 -443 254z" />
<glyph unicode="t" horiz-adv-x="735" d="M10 963v53q0 37 37 37h195v209q0 36 37 36h63q23 0 30 -7.5t7 -28.5v-209h297q37 0 37 -37v-53q0 -37 -37 -37h-297v-533q0 -178 61 -233q58 -58 232 -58q37 0 37 -39v-55q0 -20 -8.5 -28.5t-28.5 -8.5h-16q-229 0 -318 86q-96 90 -96 332v537h-195q-37 0 -37 37z" />
<glyph unicode="u" horiz-adv-x="1124" d="M127 371v645q0 20 8.5 28.5t28.5 8.5h63q22 0 29.5 -8t7.5 -29v-639q0 -281 287 -281q156 0 266 45q37 15 37 58v817q0 37 37 37h65q37 0 37 -37v-864q0 -48 -15.5 -70.5t-62.5 -42.5q-165 -68 -383 -68q-405 0 -405 400z" />
<glyph unicode="v" horiz-adv-x="1032" d="M37 1044q6 8 35 9h47q32 0 43.5 -7t19.5 -30l281 -676q9 -25 35 -104q14 -49 22 -74h6q14 43 23 74q18 62 33 102l278 678q7 23 20 30t46 7h49q27 0 33 -8q2 -3 2 -8q0 -9 -6 -25l-410 -983q-15 -35 -51 -35h-39q-38 0 -53 35l-410 981q-6 16 -6 26q0 5 2 8z" />
<glyph unicode="w" horiz-adv-x="1497" d="M54 1044q6 9 32 9h47q33 0 46.5 -7t17.5 -30l186 -635q2 -9 7 -29.5t10.5 -43.5t9.5 -46q13 -71 18 -94h6l4 14q3 14 8.5 34t10.5 44q13 68 28 123l197 610q6 24 16.5 30.5t42.5 6.5h31q30 0 40.5 -6.5t18.5 -30.5l195 -604q14 -44 33 -127q4 -23 8.5 -44t8 -34.5 t3.5 -15.5h6q6 25 19 90q17 89 29 127l184 631q6 24 17.5 30.5t47.5 6.5h41q27 0 33 -9q3 -4 2 -11q0 -9 -4 -23l-303 -983q-9 -33 -49 -33h-43q-42 0 -51 33l-211 669q-15 56 -25 105q-4 17 -8 33.5t-5.5 25t-2.5 10.5h-6q-8 -23 -17 -71q-13 -64 -24 -103l-211 -669 q-9 -33 -49 -33h-43q-41 0 -50 33l-301 983q-4 14 -4 23q0 7 3 11z" />
<glyph unicode="x" horiz-adv-x="997" d="M74 41l372 500l-356 471q-9 13 -9 22q0 19 38 19h57q46 0 68 -31l286 -381l287 381q14 20 24.5 25.5t39.5 5.5h61q34 0 34 -18q0 -9 -9 -23l-351 -471l373 -500q9 -14 9 -23q0 -18 -35 -18h-62q-43 0 -65 31l-308 411l-305 -411q-19 -31 -65 -31h-58q-36 0 -36 17 q0 10 10 24z" />
<glyph unicode="y" horiz-adv-x="1128" d="M129 397v619q0 20 8.5 28.5t28.5 8.5h63q22 0 29.5 -8t7.5 -29v-613q0 -280 287 -280q132 0 303 55v838q0 37 37 37h65q37 0 37 -37v-1079q0 -443 -436 -443q-286 0 -407 219q-10 16 -10 29q0 21 24 33l45 22q14 8 26 8q20 0 33 -22q89 -164 287 -164q299 0 299 311v121 q-183 -53 -321 -53q-406 0 -406 399z" />
<glyph unicode="z" horiz-adv-x="931" d="M63 37v51q0 25 13 41l608 799h-578q-34 0 -34 37v51q0 21 7 29t27 8h717q20 0 28.5 -8.5t8.5 -28.5v-51q0 -26 -14 -43l-608 -797h596q36 0 36 -37v-51q0 -37 -36 -37h-734q-22 0 -29.5 8t-7.5 29z" />
<glyph unicode="{" horiz-adv-x="655" d="M12 690v68q0 37 31 37h20q168 0 168 196v498q0 138 61.5 201t201.5 63h96q37 0 37 -37v-53q0 -37 -37 -37h-92q-133 0 -133 -143v-510q0 -189 -140 -248q140 -53 140 -250v-506q0 -143 133 -143h92q37 0 37 -37v-53q0 -37 -37 -37h-94q-141 0 -203 62t-62 200v496 q0 196 -168 196h-20q-31 0 -31 37z" />
<glyph unicode="|" horiz-adv-x="407" d="M137 -264v1980q0 37 37 37h57q22 0 29.5 -8t7.5 -29v-1980q0 -23 -7 -30t-30 -7h-57q-37 0 -37 37z" />
<glyph unicode="}" horiz-adv-x="655" d="M29 -211q0 37 37 37h92q133 0 133 143v506q0 197 139 250q-139 59 -139 248v510q0 143 -133 143h-92q-37 0 -37 37v53q0 37 37 37h96q140 0 201 -63t61 -201v-498q0 -196 168 -196h20q31 0 31 -37v-68q0 -37 -31 -37h-20q-168 0 -168 -196v-496q0 -138 -61.5 -200 t-202.5 -62h-94q-37 0 -37 37v53z" />
<glyph unicode="~" horiz-adv-x="1146" d="M170 608q-27 31 0 58q109 100 244 100q82 0 194 -41q107 -43 170 -43q92 0 168 70q18 17 28.5 16.5t24.5 -18.5l39 -35q31 -31 0 -58q-112 -100 -245 -100q-86 0 -193 43q-109 41 -170 41q-89 0 -168 -70q-27 -24 -53 2z" />
<glyph unicode="&#xa2;" horiz-adv-x="1093" d="M111 375v305q0 173 95.5 276.5t278.5 120.5v135q0 37 37 37h66q37 0 37 -37v-135q286 -21 362 -270q11 -39 -24 -53l-54 -19q-38 -12 -53 25q-31 105 -103 153t-200 48q-148 0 -225.5 -72.5t-77.5 -204.5v-313q0 -132 78.5 -205.5t224.5 -73.5q243 0 307 211q12 34 51 25 l56 -17q38 -14 24 -53q-83 -260 -366 -281v-112q0 -37 -37 -37h-66q-37 0 -37 37v110q-182 13 -278 117.5t-96 282.5z" />
<glyph unicode="&#xa3;" horiz-adv-x="1300" d="M80 41v59q0 33 24 33h35q72 7 108 66t36 149v281h-146q-23 0 -31 8t-8 31v49q0 24 8 32.5t31 8.5h146v334q0 176 115.5 283.5t326.5 107.5q183 0 296 -76t173 -240q12 -37 -27 -51l-61 -22q-25 -7 -33 -3.5t-20 27.5q-47 123 -122.5 175.5t-201.5 52.5q-142 0 -216.5 -70 t-74.5 -191v-327h527q23 0 32 -9t9 -32v-49q0 -39 -41 -39h-527v-279q0 -148 -102 -219v-6q137 14 264 14h549q23 0 32 -9t9 -32v-57q0 -23 -9 -32t-32 -9h-1030q-23 0 -31 8.5t-8 32.5z" />
<glyph unicode="&#xa5;" horiz-adv-x="1306" d="M66 1442q6 12 26 12h74q38 0 52 -6.5t26 -30.5l420 -651l417 651q12 24 26 30.5t52 6.5h70q41 0 20 -41l-458 -696h251q35 0 35 -37v-37q0 -37 -35 -37h-309v-186h309q35 0 35 -37v-37q0 -37 -35 -37h-309v-268q0 -41 -39 -41h-67q-23 0 -32 9t-9 32v268h-312 q-34 0 -34 37v37q0 37 34 37h312v186h-312q-34 0 -34 37v37q0 37 34 37h258l-460 696q-12 17 -6 29z" />
<glyph unicode="&#xa8;" horiz-adv-x="899" d="M172 1325v16q0 37 14 51.5t52 14.5h12q38 0 52.5 -14.5t14.5 -51.5v-16q0 -38 -14.5 -53t-52.5 -15h-12q-38 0 -52 14.5t-14 53.5zM567 1325v16q0 37 15 51.5t53 14.5h12q38 0 53 -14.5t15 -51.5v-16q0 -38 -15 -53t-53 -15h-12q-38 0 -53 15t-15 53z" />
<glyph unicode="&#xa9;" horiz-adv-x="1652" d="M92 719q0 309 213 522t524 213q308 0 521 -213q211 -211 211 -522t-211 -522q-213 -213 -521 -213q-310 0 -522 215q-215 212 -215 520zM193 719q0 -269 184 -453q181 -184 452 -184q267 0 451 184q182 185 182 453q0 270 -182 455q-185 182 -451 182q-270 0 -452 -182 q-184 -184 -184 -455zM504 594v235q0 138 82 214.5t235 76.5q245 0 307 -200q9 -31 -16 -39l-37 -13q-28 -12 -37 19q-24 76 -72.5 108.5t-144.5 32.5q-219 0 -219 -199v-235q0 -95 56 -147t163 -52q92 0 144 36t75 114q9 28 41 18l31 -12q31 -9 21 -39q-68 -209 -312 -209 q-151 0 -234 77.5t-83 213.5z" />
<glyph unicode="&#xab;" horiz-adv-x="1155" d="M100 514q-22 22 0 47l412 412q26 21 47 0l41 -41q22 -25 0 -47l-344 -344l342 -342q22 -22 0 -47l-43 -43q-25 -21 -49 0zM569 514q-22 22 0 47l412 412q22 22 47 0l39 -41q22 -22 0 -47l-342 -344l342 -342q22 -22 0 -47l-43 -43q-24 -21 -49 0z" />
<glyph unicode="&#xad;" horiz-adv-x="864" d="M127 518v51q0 41 39 41h530q23 0 32 -9t9 -32v-51q0 -23 -9 -32t-32 -9h-530q-39 0 -39 41z" />
<glyph unicode="&#xae;" horiz-adv-x="985" d="M96 1057q0 164 119 280q117 117 281 117q161 0 278 -117t117 -280t-115 -281q-117 -117 -280 -117q-164 0 -281 117q-119 116 -119 281zM164 1057q0 -142 98 -236q94 -98 236 -98q137 0 231 98q96 101 96 236q0 134 -96 235q-97 97 -231 97q-139 0 -236 -97 q-98 -94 -98 -235zM334 864v379q0 21 22 21h181q67 0 105 -36.5t38 -99.5q0 -103 -92 -124l78 -132q7 -10 3 -16t-18 -6h-28q-19 0 -27 14l-76 133h-125v-133q0 -14 -16 -14h-29q-16 0 -16 14zM395 1053h140q81 0 81 75q0 76 -81 76h-140v-151z" />
<glyph unicode="&#xb4;" horiz-adv-x="526" d="M76 1239q-20 26 4 41l330 205q48 25 69 -2l31 -37q10 -12 13 -19.5t-1.5 -13.5t-17.5 -10l-361 -191q-33 -14 -49 2z" />
<glyph unicode="&#xb8;" horiz-adv-x="514" d="M53 -385q0 26 21 14q68 -47 151 -47q67 0 104.5 30.5t37.5 84.5q0 86 -123 86q-44 0 -68 -8q-19 -2 -24 6.5t2 28.5l73 190h86l-53 -152q24 7 51 7q82 0 130 -45.5t44 -118.5q-6 -96 -71 -145.5t-172 -49.5q-102 0 -164 39q-25 16 -25 41v39z" />
<glyph unicode="&#xbb;" horiz-adv-x="1155" d="M129 885q-22 25 0 47l41 41q25 22 47 0l412 -412q22 -25 0 -47l-406 -405q-25 -21 -49 0l-43 43q-22 25 0 47l342 342zM598 885q-22 22 0 47l41 41q22 28 47 0l412 -412q22 -25 0 -47l-406 -405q-24 -21 -49 0l-43 43q-25 25 0 47l342 342z" />
<glyph unicode="&#x2c6;" horiz-adv-x="774" d="M80 1231l252 219q23 24 33.5 28.5t40.5 4.5h14q25 0 35.5 -5t33.5 -28l252 -219q28 -31 -18 -31h-57q-42 0 -60 21l-196 170l-199 -170q-21 -21 -59 -21h-54q-46 0 -18 31z" />
<glyph unicode="&#x2da;" horiz-adv-x="491" d="M41 1325q0 91 57 145q59 56 152 56q92 0 147.5 -55t55.5 -146t-55.5 -146t-147.5 -55q-93 0 -152 56q-57 54 -57 145zM115 1325q0 -60 36 -94.5t99 -34.5q59 0 94 35t35 94t-35 94t-94 35q-63 0 -99 -34.5t-36 -94.5z" />
<glyph unicode="&#x2dc;" horiz-adv-x="624" d="M-4 1253q0 203 160 203q42 0 87.5 -21.5t78 -47t70.5 -47t67 -21.5q82 0 82 113q0 24 22 24h41q25 0 25 -24q0 -203 -160 -203q-75 0 -162 69q-89 68 -139 68q-82 0 -82 -113q0 -24 -25 -24h-41q-24 0 -24 24z" />
<glyph unicode="&#x401;" horiz-adv-x="1173" d="M160 41v1372q0 23 9 32t32 9h829q39 0 39 -41v-57q0 -41 -39 -41h-723v-508h631q39 0 39 -41v-57q0 -41 -39 -41h-631v-529h750q39 0 39 -41v-57q0 -41 -39 -41h-856q-23 0 -32 9t-9 32zM346 1669v17q0 37 15 51t53 14h12q38 0 53 -14t15 -51v-17q0 -37 -15 -51t-53 -14 h-12q-38 0 -53 14t-15 51zM743 1669v17q0 37 15 51t53 14h12q38 0 53 -14t15 -51v-17q0 -37 -15 -51t-53 -14h-12q-38 0 -53 14t-15 51z" />
<glyph unicode="&#x410;" horiz-adv-x="1312" d="M41 39l549 1386q12 35 51 35h61q43 0 54 -33l549 -1388q8 -20 1 -29.5t-30 -9.5h-59q-65 0 -74 37l-154 389h-641l-153 -389q-6 -23 -20.5 -30t-51.5 -7h-55q-41 0 -27 39zM391 549h557l-246 629q-28 86 -28 141h-10q0 -61 -25 -141z" />
<glyph unicode="&#x411;" horiz-adv-x="1286" d="M160 39v1374q0 23 9 32t32 9h872q23 0 32 -9t9 -32v-57q0 -23 -9 -32t-32 -9h-766v-475h484q199 0 313.5 -111.5t114.5 -308.5q0 -196 -114.5 -308t-313.5 -112h-592q-23 0 -31 8t-8 31zM307 139h469q134 0 211 74q76 73 76 207q0 133 -76 209q-76 73 -211 73h-469v-563z " />
<glyph unicode="&#x412;" horiz-adv-x="1316" d="M160 41v1372q0 23 9 32t32 9h577q190 0 293 -96.5t103 -276.5q0 -245 -193 -327v-4q244 -65 244 -359q0 -185 -113.5 -288t-310.5 -103h-600q-23 0 -32 9t-9 32zM307 139h488q133 0 204 68q70 67 70 199q0 130 -70 200q-71 68 -204 68h-488v-535zM307 807h453 q128 0 195 64.5t67 191.5q0 252 -262 252h-453v-508z" />
<glyph unicode="&#x413;" horiz-adv-x="1048" d="M160 41v1372q0 23 9 32t32 9h774q23 0 32 -9t9 -32v-57q0 -23 -9 -32t-32 -9h-668v-1274q0 -24 -8 -32.5t-31 -8.5h-67q-23 0 -32 9t-9 32z" />
<glyph unicode="&#x414;" horiz-adv-x="1458" d="M31 98q0 23 9 32t32 9h71q45 31 76 73t66 128q71 180 71 657v416q0 23 9 32t32 9h809q23 0 32 -9t9 -32v-1274h129q23 0 32 -9t9 -32v-370q0 -23 -9 -32t-32 -9h-65q-23 0 -31 8.5t-8 32.5v272h-1096v-272q0 -41 -39 -41h-65q-23 0 -32 9t-9 32v370zM324 139h774v1176 h-598v-318q0 -389 -47 -579q-51 -192 -129 -279z" />
<glyph unicode="&#x415;" horiz-adv-x="1173" d="M160 41v1372q0 23 9 32t32 9h829q39 0 39 -41v-57q0 -41 -39 -41h-723v-508h631q39 0 39 -41v-57q0 -41 -39 -41h-631v-529h750q39 0 39 -41v-57q0 -41 -39 -41h-856q-23 0 -32 9t-9 32z" />
<glyph unicode="&#x416;" horiz-adv-x="1878" d="M70 41l258 506q82 162 204 211l-440 657q-26 39 21 39h73q38 0 53.5 -6t28.5 -29l408 -618q36 4 84 4h131v608q0 23 9 32t32 9h67q23 0 32 -9t9 -32v-608h134q49 0 81 -4l408 618q13 23 28.5 29t53.5 6h76q20 0 25 -13t-7 -26l-440 -657q124 -50 205 -211l258 -506 q27 -41 -21 -41h-67q-65 0 -80 37l-228 455q-50 100 -112.5 139t-179.5 39h-134v-629q0 -23 -9 -32t-32 -9h-67q-23 0 -32 9t-9 32v629h-131q-117 0 -180 -39t-115 -139l-227 -455q-15 -37 -80 -37h-68q-47 0 -20 41z" />
<glyph unicode="&#x417;" horiz-adv-x="1269" d="M81 362.5q5 11.5 28 18.5l63 22q38 15 53 -26q44 -140 145 -204t292 -64q182 0 273 75.5t91 218.5q0 126 -69.5 199.5t-196.5 73.5h-354q-39 0 -39 39v55q0 41 39 41h337q118 0 181 69t63 183q0 137 -85.5 210t-248.5 73q-181 0 -276 -62t-139 -201q-14 -33 -54 -24 l-63 22q-40 15 -25 52q56 179 191.5 264.5t374.5 85.5q232 0 353.5 -106t121.5 -302q0 -245 -187 -321q232 -80 232 -357q0 -205 -132 -315.5t-388 -110.5q-242 0 -382 88.5t-196 268.5q-8 23 -3 34.5z" />
<glyph unicode="&#x418;" horiz-adv-x="1421" d="M160 41v1372q0 23 9 32t32 9h67q23 0 31 -8.5t8 -32.5v-782q0 -229 -24 -441h6q95 185 231 385l590 859q14 20 43 20h68q23 0 32 -9t9 -32v-1372q0 -23 -9 -32t-32 -9h-68q-23 0 -32 9t-9 32v805q0 200 27 418h-4q-67 -129 -220 -363l-604 -878q-16 -23 -43 -23h-67 q-23 0 -32 9t-9 32z" />
<glyph unicode="&#x419;" horiz-adv-x="1421" d="M160 41v1372q0 23 9 32t32 9h67q23 0 31 -8.5t8 -32.5v-782q0 -229 -24 -441h6q95 185 231 385l590 859q14 20 43 20h68q23 0 32 -9t9 -32v-1372q0 -23 -9 -32t-32 -9h-68q-23 0 -32 9t-9 32v805q0 200 27 418h-4q-67 -129 -220 -363l-604 -878q-16 -23 -43 -23h-67 q-23 0 -32 9t-9 32zM383 1792q-9 26 18 35l54 18q31 9 41 -14q50 -158 221 -158q170 0 223 158q9 22 35 16l59 -20q25 -13 19 -35q-74 -221 -336 -221q-260 0 -334 221z" />
<glyph unicode="&#x41a;" horiz-adv-x="1247" d="M160 41v1372q0 23 9 32t32 9h67q23 0 31 -8.5t8 -32.5v-608h197h45l459 614q27 35 82 35h73q22 0 28 -13t-7 -26l-486 -639q155 -44 248 -229l260 -506q21 -41 -22 -41h-66q-39 0 -54.5 7t-27.5 30l-227 455q-50 100 -113 139t-180 39h-209v-629q0 -24 -8 -32.5t-31 -8.5 h-67q-23 0 -32 9t-9 32z" />
<glyph unicode="&#x41b;" horiz-adv-x="1343" d="M31 55q-19 36 20 56q56 27 84 49q31 20 72 76q41 59 61 139q51 200 51 575v463q0 41 39 41h803q23 0 32 -9t9 -32v-1372q0 -23 -9 -32t-32 -9h-67q-23 0 -31 8.5t-8 32.5v1274h-590v-363q0 -428 -66 -655q-28 -97 -80 -164q-53 -68 -92 -94q-41 -27 -112 -62 q-39 -19 -54 19z" />
<glyph unicode="&#x41c;" horiz-adv-x="1638" d="M160 41v1372q0 23 9 32t32 9h53q40 0 57 -33l508 -899l504 897q12 23 22 29t35 6h60q23 0 32 -9t9 -32v-1372q0 -23 -9 -32t-32 -9h-62q-23 0 -32 9t-9 32l2 836q0 179 25 362h-8q-58 -140 -158 -319l-311 -549q-15 -31 -47 -31h-41q-33 0 -49 31l-316 555 q-75 127 -149 315h-9q23 -205 23 -367v-833q0 -23 -9 -32t-32 -9h-57q-23 0 -32 9t-9 32z" />
<glyph unicode="&#x41d;" horiz-adv-x="1394" d="M160 41v1372q0 23 9 32t32 9h67q23 0 31 -8.5t8 -32.5v-606h780v606q0 23 9 32t32 9h68q39 0 39 -41v-1372q0 -41 -39 -41h-68q-23 0 -32 9t-9 32v627h-780v-627q0 -24 -8 -32.5t-31 -8.5h-67q-23 0 -32 9t-9 32z" />
<glyph unicode="&#x41e;" horiz-adv-x="1357" d="M117 485v484q0 243 146.5 378.5t416.5 135.5q268 0 414.5 -135.5t146.5 -378.5v-484q0 -243 -146.5 -378.5t-414.5 -135.5q-270 0 -416.5 135.5t-146.5 378.5zM264 485q0 -180 107.5 -278t308.5 -98q200 0 307 97.5t107 278.5v484q0 181 -107 279t-307 98t-308 -98 t-108 -279v-484z" />
<glyph unicode="&#x41f;" horiz-adv-x="1382" d="M160 41v1372q0 23 9 32t32 9h983q39 0 39 -41v-1372q0 -41 -39 -41h-70q-39 0 -39 41v1274h-768v-1274q0 -24 -8 -32.5t-31 -8.5h-67q-23 0 -32 9t-9 32z" />
<glyph unicode="&#x420;" horiz-adv-x="1273" d="M160 41v1372q0 23 9 32t32 9h547q216 0 339 -121t123 -334t-123 -332.5t-339 -119.5h-441v-506q0 -24 -8 -32.5t-31 -8.5h-67q-23 0 -32 9t-9 32zM307 684h428q150 0 236 84t86 231t-86 231.5t-236 84.5h-428v-631z" />
<glyph unicode="&#x421;" horiz-adv-x="1302" d="M117 485v484q0 243 145.5 378.5t415.5 135.5q227 0 358 -85.5t187 -264.5q8 -23 3 -35t-28 -19l-63 -22q-40 -9 -54 24q-43 138 -137.5 201.5t-265.5 63.5q-200 0 -306 -97.5t-106 -277.5v-488q0 -178 107.5 -276t304.5 -98q175 0 269.5 64t137.5 206q15 36 54 27l63 -25 q37 -15 25 -51q-56 -182 -188.5 -270.5t-360.5 -88.5q-267 0 -414 135.5t-147 378.5z" />
<glyph unicode="&#x422;" horiz-adv-x="1112" d="M27 1356v57q0 23 9 32t32 9h976q23 0 32 -9t9 -32v-57q0 -23 -9 -32t-32 -9h-413v-1274q0 -23 -9 -32t-32 -9h-68q-23 0 -32 9t-9 32v1274h-413q-23 0 -32 9t-9 32z" />
<glyph unicode="&#x423;" horiz-adv-x="1214" d="M33 1413q-18 41 22 41h70q38 0 52 -6.5t26 -30.5l434 -837l412 837q12 25 23.5 31t47.5 6h68q40 0 22 -41l-675 -1376q-10 -23 -23.5 -30t-44.5 -7h-78q-43 0 -22 41l192 375z" />
<glyph unicode="&#x424;" horiz-adv-x="1695" d="M90 653v158q0 248 143 384t410 136h131v133q0 24 8 32.5t31 8.5h68q23 0 32 -9t9 -32v-133h129q267 0 410 -136t143 -384v-158q0 -248 -143 -384t-410 -136h-129v-133q0 -23 -9 -32t-32 -9h-68q-23 0 -31 8.5t-8 32.5v133h-131q-267 0 -410 136t-143 384zM240 647 q0 -184 103.5 -282.5t299.5 -98.5h131v932h-131q-196 0 -299.5 -98.5t-103.5 -282.5v-170zM922 266h129q196 0 299.5 98.5t103.5 282.5v170q0 184 -103.5 282.5t-299.5 98.5h-129v-932z" />
<glyph unicode="&#x425;" horiz-adv-x="1263" d="M32.5 13q-4.5 13 8.5 30l500 696l-486 676q-11 13 -5 26t26 13h82q33 0 47 -6t31 -29l401 -563l403 563q13 23 27 29t47 6h82q20 0 26 -13t-5 -26l-488 -676l504 -696q13 -17 8 -30t-29 -13h-82q-38 0 -51.5 6.5t-25.5 30.5l-422 588l-416 -588q-13 -24 -27.5 -30.5 t-50.5 -6.5h-78q-22 0 -26.5 13z" />
<glyph unicode="&#x426;" horiz-adv-x="1425" d="M160 41v1372q0 23 9 32t32 9h67q23 0 31 -8.5t8 -32.5v-1274h760v1274q0 23 9 32t32 9h68q38 0 38 -41v-1274h127q23 0 32 -9t9 -32v-370q0 -23 -9 -32t-32 -9h-61q-23 0 -32 9t-9 32v272h-1038q-23 0 -32 9t-9 32z" />
<glyph unicode="&#x427;" horiz-adv-x="1288" d="M82 1049v364q0 23 9 32t32 9h67q23 0 32 -9t9 -32v-364q0 -186 88.5 -274.5t286.5 -88.5q239 0 375 43v684q0 24 8 32.5t31 8.5h67q23 0 32 -9t9 -32v-1372q0 -23 -9 -32t-32 -9h-67q-23 0 -31 8.5t-8 32.5v547q-178 -41 -381 -41q-271 0 -394.5 123.5t-123.5 378.5z" />
<glyph unicode="&#x428;" horiz-adv-x="1867" d="M160 41v1372q0 23 9 32t32 9h67q23 0 31 -8.5t8 -32.5v-1274h551v1274q0 23 9 32t32 9h68q23 0 32 -9t9 -32v-1274h551v1274q0 23 8.5 32t31.5 9h68q23 0 32 -9t9 -32v-1372q0 -23 -9 -32t-32 -9h-1466q-23 0 -32 9t-9 32z" />
<glyph unicode="&#x429;" horiz-adv-x="1918" d="M160 41v1372q0 23 9 32t32 9h67q23 0 31 -8.5t8 -32.5v-1274h551v1274q0 23 9 32t32 9h68q23 0 32 -9t9 -32v-1274h551v1274q0 23 8.5 32t31.5 9h68q23 0 32 -9t9 -32v-1274h129q23 0 31 -8.5t8 -32.5v-370q0 -24 -8 -32.5t-31 -8.5h-63q-23 0 -31 8.5t-8 32.5v272h-1534 q-23 0 -32 9t-9 32z" />
<glyph unicode="&#x42a;" horiz-adv-x="1492" d="M27 1356v57q0 23 9 32t32 9h417q23 0 32 -9t9 -32v-506h441q216 0 339.5 -119.5t123.5 -332.5t-123.5 -334t-339.5 -121h-549q-23 0 -31 8.5t-8 32.5v1274h-311q-23 0 -32 9t-9 32zM526 139h426q152 0 237 83.5t85 232.5t-85 232t-237 83h-426v-631z" />
<glyph unicode="&#x42b;" horiz-adv-x="1767" d="M160 41v1372q0 23 9 32t32 9h67q23 0 31 -8.5t8 -32.5v-506h441q216 0 339 -119.5t123 -332.5t-123 -334t-339 -121h-547q-23 0 -32 9t-9 32zM307 139h428q150 0 236 84.5t86 231.5t-86 231t-236 84h-428v-631zM1458 41v1372q0 23 9 32t32 9h68q23 0 32 -9t9 -32v-1372 q0 -23 -9 -32t-32 -9h-68q-23 0 -32 9t-9 32z" />
<glyph unicode="&#x42c;" horiz-adv-x="1273" d="M160 41v1372q0 23 9 32t32 9h67q23 0 31 -8.5t8 -32.5v-506h441q216 0 339 -119.5t123 -332.5t-123 -334t-339 -121h-547q-23 0 -32 9t-9 32zM307 139h428q150 0 236 84.5t86 231.5t-86 231t-236 84h-428v-631z" />
<glyph unicode="&#x42d;" horiz-adv-x="1310" d="M96 328q-11 39 27 53l63 22q37 15 52 -26q45 -139 140.5 -203.5t266.5 -64.5q197 0 304.5 98t107.5 276v183h-613q-23 0 -32 9t-9 32v57q0 23 9 32t32 9h613v168q0 180 -105.5 276.5t-306.5 96.5q-172 0 -266 -62.5t-137 -200.5q-12 -33 -54 -24l-63 22q-37 15 -25 52 q56 179 187 264.5t358 85.5q270 0 416.5 -134.5t146.5 -377.5v-486q0 -243 -147 -378.5t-416 -135.5q-228 0 -360.5 88.5t-188.5 268.5z" />
<glyph unicode="&#x42e;" horiz-adv-x="1886" d="M160 41v1372q0 23 9 32t32 9h67q23 0 31 -8.5t8 -32.5v-606h357v164q0 243 144 377.5t411 134.5q264 0 407 -134.5t143 -377.5v-488q0 -243 -143 -377.5t-407 -134.5q-267 0 -411 134.5t-144 377.5v185h-357v-627q0 -24 -8 -32.5t-31 -8.5h-67q-23 0 -32 9t-9 32z M813 483q0 -180 105 -277t301 -97q195 0 299 97t104 277v488q0 180 -104 277.5t-299 97.5q-196 0 -301 -97.5t-105 -277.5v-488z" />
<glyph unicode="&#x42f;" horiz-adv-x="1314" d="M104 41l215 446q46 104 123 142q-153 29 -234 131.5t-81 269.5q0 200 114 312t316 112h582q23 0 32 -9t9 -32v-1372q0 -23 -9 -32t-32 -9h-68q-23 0 -32 9t-9 32v569h-282q-118 0 -182.5 -39.5t-108.5 -138.5l-185 -395q-10 -23 -26.5 -30t-55.5 -7h-65q-42 0 -21 41z M283 1030q0 -134 75.5 -207t212.5 -73h459v565h-459q-139 0 -213.5 -74t-74.5 -211z" />
<glyph unicode="&#x430;" horiz-adv-x="1048" d="M76 289q0 173 102.5 245t347.5 72q93 0 269 -20v94q0 140 -64 210.5t-213 70.5q-204 0 -287 -150q-22 -32 -51 -16l-49 20q-37 14 -20 53q114 215 411 215q218 0 314 -104.5t96 -300.5v-537q0 -52 -15 -74.5t-59 -41.5q-127 -54 -340 -54q-255 0 -348 78q-94 76 -94 240z M217 291q0 -109 63 -157t228 -48q160 0 248 33q25 11 32 20.5t7 38.5v295q-195 19 -283 19q-160 0 -227.5 -47t-67.5 -154z" />
<glyph unicode="&#x431;" horiz-adv-x="1132" d="M127 371v508q0 335 123 479q120 141 432 141h72q110 0 159 27q39 19 54 -25l16 -47q6 -23 2.5 -31t-24.5 -20q-62 -33 -203 -33h-74q-250 0 -338 -98q-90 -104 -90 -359v-43q107 162 350 162q203 0 315.5 -106t112.5 -293v-262q0 -191 -116.5 -295.5t-337.5 -104.5 q-218 0 -335.5 105t-117.5 295zM266 371q0 -132 80.5 -203.5t233.5 -71.5q154 0 234.5 71.5t80.5 203.5v262q0 132 -80.5 203t-234.5 71q-140 0 -220 -65q-82 -67 -94 -137v-334z" />
<glyph unicode="&#x432;" horiz-adv-x="1091" d="M135 39v977q0 37 39 37h502q139 0 216 -73t77 -202q0 -163 -125 -227q162 -70 162 -260q0 -135 -81.5 -213t-222.5 -78h-528q-39 0 -39 39zM274 119h404q88 0 136 48t48 136q0 87 -49 134.5t-139 47.5h-400v-366zM274 600h388q76 0 121.5 45.5t45.5 122.5q0 168 -176 168 h-379v-336z" />
<glyph unicode="&#x433;" horiz-adv-x="870" d="M135 37v979q0 37 37 37h631q20 0 28.5 -8.5t8.5 -28.5v-53q0 -37 -37 -37h-529v-889q0 -37 -36 -37h-66q-37 0 -37 37z" />
<glyph unicode="&#x434;" horiz-adv-x="1216" d="M33 90q0 37 37 37h61q69 57 109 176q36 112 36 395v318q0 21 7.5 29t29.5 8h678q37 0 37 -37v-889h113q22 0 29.5 -8t7.5 -29v-338q0 -23 -7 -30t-30 -7h-60q-37 0 -37 37v248h-876v-248q0 -37 -39 -37h-59q-37 0 -37 37v338zM293 127h596v799h-479v-236 q0 -419 -117 -563z" />
<glyph unicode="&#x435;" horiz-adv-x="1085" d="M96 385v266q0 206 117 319t336 113t337 -114t118 -310v-112q0 -58 -62 -58h-709v-118q0 -134 79.5 -207.5t228.5 -73.5q226 0 321 170q23 33 60 14l43 -22q37 -19 14 -59q-124 -222 -438 -222q-219 0 -332 109t-113 305zM233 596h633v72q0 141 -81.5 219t-235.5 78 q-152 0 -234 -78t-82 -219v-72z" />
<glyph unicode="&#x436;" horiz-adv-x="1525" d="M49.5 10q-4.5 10 7.5 33l185 369q61 118 147 153l-315 445q-27 43 22 43h58q35 0 48 -5t25 -24l291 -422q8 2 39 2h141v412q0 23 7.5 30t31.5 7h60q24 0 31.5 -7t7.5 -30v-412h141q31 0 39 -2l291 422q12 19 25 24t48 5h58q52 0 22 -43l-315 -445q86 -35 147 -153 l185 -369q12 -23 7.5 -33t-30.5 -10h-61q-31 0 -42.5 6.5t-19.5 26.5l-155 319q-31 67 -77.5 96t-123.5 29h-139v-438q0 -23 -8 -31t-31 -8h-60q-23 0 -31 8t-8 31v438h-139q-77 0 -123.5 -29t-77.5 -96l-155 -319q-8 -20 -19.5 -26.5t-42.5 -6.5h-61q-26 0 -30.5 10z" />
<glyph unicode="&#x437;" horiz-adv-x="1050" d="M82 252q-14 39 27 51l53 19q39 9 53 -27q86 -203 336 -203q143 0 214 53.5t71 149.5q0 184 -207 184h-223q-37 0 -37 39v39q0 39 37 39h212q93 0 145 45t52 125q0 91 -67.5 143t-202.5 52q-79 0 -143 -23t-101 -61q-58 -63 -72 -107q-14 -38 -53 -27l-53 19 q-40 12 -25 53q7 23 23.5 52.5t53 69t83.5 71t122 53.5t163 22q205 0 309 -82t104 -223q0 -176 -147 -229v-8q168 -52 168 -258q0 -147 -106 -229.5t-320 -82.5q-112 0 -202 31t-146 84q-49 47 -75 84t-46 82z" />
<glyph unicode="&#x438;" horiz-adv-x="1150" d="M135 37v979q0 37 37 37h66q36 0 36 -37v-592q0 -108 -22 -240h4q52 95 106 168l517 682q13 19 34 19h66q37 0 37 -37v-979q0 -37 -37 -37h-66q-36 0 -36 37v579q0 100 24 250h-6q-16 -33 -113 -174l-508 -672q-11 -20 -36 -20h-66q-37 0 -37 37z" />
<glyph unicode="&#x439;" horiz-adv-x="1150" d="M135 37v979q0 37 37 37h66q36 0 36 -37v-592q0 -108 -22 -240h4q52 95 106 168l517 682q13 19 34 19h66q37 0 37 -37v-979q0 -37 -37 -37h-66q-36 0 -36 37v579q0 100 24 250h-6q-16 -33 -113 -174l-508 -672q-11 -20 -36 -20h-66q-37 0 -37 37zM272 1430q-9 24 17 34 l49 19q28 9 39 -15q43 -159 205 -159q160 0 206 159q11 25 33 15l56 -19q25 -9 16 -34q-67 -224 -311 -224q-246 0 -310 224z" />
<glyph unicode="&#x43a;" horiz-adv-x="1058" d="M135 39v977q0 37 39 37h62q38 0 38 -37v-412h218h20l328 420q13 19 26 24t47 5h58q54 0 24 -43l-346 -432q110 -27 178 -166l185 -369q12 -23 7 -33t-30 -10h-61q-30 0 -41.5 6t-22.5 27l-155 319q-31 66 -77.5 95.5t-121.5 29.5h-236v-438q0 -23 -7.5 -31t-30.5 -8h-62 q-23 0 -31 8t-8 31z" />
<glyph unicode="&#x43b;" d="M23 55q-14 25 14 41q32 16 44 22.5t30 22.5t39 43q32 38 51 99q43 138 43 397v336q0 20 8.5 28.5t28.5 8.5h661q37 0 37 -37v-979q0 -37 -37 -37h-65q-37 0 -37 37v887h-463v-252q0 -377 -86 -525q-42 -70 -84 -106.5t-109 -67.5q-30 -12 -45 19z" />
<glyph unicode="&#x43c;" horiz-adv-x="1306" d="M135 39v975q0 23 9 31t34 8h45q37 0 56 -31l376 -668l373 666q14 33 51 33h51q25 0 33 -8t8 -31v-975q0 -23 -7.5 -31t-30.5 -8h-52q-24 0 -31.5 7.5t-7.5 31.5v557q0 78 23 260h-6q-31 -83 -101 -203l-239 -424q-16 -28 -47 -28h-33q-34 0 -49 30l-238 414 q-47 81 -104 211h-6q22 -184 22 -272v-545q0 -24 -7 -31.5t-30 -7.5h-53q-23 0 -31 8t-8 31z" />
<glyph unicode="&#x43d;" horiz-adv-x="1140" d="M135 37v979q0 37 37 37h66q36 0 36 -37v-412h592v412q0 37 37 37h66q37 0 37 -37v-979q0 -37 -37 -37h-66q-37 0 -37 37v440h-592v-440q0 -37 -36 -37h-66q-37 0 -37 37z" />
<glyph unicode="&#x43e;" horiz-adv-x="1103" d="M102 346v361q0 177 119.5 276.5t329.5 99.5q211 0 332 -100t121 -276v-361q0 -176 -121 -275.5t-332 -99.5q-209 0 -329 100.5t-120 274.5zM240 346q0 -116 84.5 -183t226.5 -67q146 0 229.5 66.5t83.5 183.5v361q0 117 -83.5 184t-229.5 67q-143 0 -227 -67t-84 -184 v-361z" />
<glyph unicode="&#x43f;" horiz-adv-x="1130" d="M135 37v979q0 37 37 37h786q20 0 28.5 -8.5t8.5 -28.5v-979q0 -20 -8.5 -28.5t-28.5 -8.5h-63q-22 0 -29.5 8t-7.5 29v889h-584v-889q0 -37 -36 -37h-66q-37 0 -37 37z" />
<glyph unicode="&#x440;" d="M131 -414v1323q0 49 16 72t66 43q151 59 358 59q426 0 426 -409v-295q0 -408 -419 -408q-134 0 -308 70v-455q0 -37 -37 -37h-65q-37 0 -37 37zM270 168q153 -72 297 -72q293 0 293 287v287q0 286 -305 286q-145 0 -246 -38q-26 -10 -32.5 -20.5t-6.5 -35.5v-694z" />
<glyph unicode="&#x441;" horiz-adv-x="1054" d="M100 375v305q0 193 114 298t333 105q345 0 428 -276q11 -38 -25 -53l-53 -19q-36 -12 -51 25q-33 105 -104 153t-199 48q-148 0 -226.5 -72.5t-78.5 -204.5v-313q0 -132 79 -205.5t226 -73.5q241 0 305 211q15 34 53 25l53 -17q39 -15 25 -53q-95 -287 -440 -287 q-213 0 -326 106t-113 298z" />
<glyph unicode="&#x442;" horiz-adv-x="919" d="M29 963v53q0 37 37 37h788q22 0 29.5 -8t7.5 -29v-53q0 -37 -37 -37h-324v-889q0 -37 -36 -37h-64q-37 0 -37 37v889h-327q-37 0 -37 37z" />
<glyph unicode="&#x443;" horiz-adv-x="1128" d="M129 397v619q0 20 8.5 28.5t28.5 8.5h63q22 0 29.5 -8t7.5 -29v-613q0 -280 287 -280q132 0 303 55v838q0 37 37 37h65q37 0 37 -37v-1079q0 -443 -436 -443q-286 0 -407 219q-25 42 14 62l45 22q38 21 59 -14q89 -164 287 -164q299 0 299 311v121q-183 -53 -321 -53 q-406 0 -406 399z" />
<glyph unicode="&#x444;" horiz-adv-x="1513" d="M98 395v252q0 220 117.5 328t321.5 108q86 -3 151 -10v406q0 37 37 37h66q34 0 34 -37v-406q63 7 150 10q197 0 319 -98q121 -100 121 -328v-262q0 -424 -440 -424q-45 0 -150 11v-396q0 -21 -7 -29t-27 -8h-66q-37 0 -37 37v396q-101 -11 -151 -11q-439 0 -439 424z M238 399q0 -301 307 -301q90 0 147 8v842q-88 8 -147 8q-58 0 -108.5 -14t-97 -47t-74 -97.5t-27.5 -154.5v-244zM823 106q57 -8 144 -8q309 0 309 301v256q0 301 -309 301q-56 0 -144 -8v-842z" />
<glyph unicode="&#x445;" horiz-adv-x="997" d="M74 41l372 500l-356 471q-27 41 29 41h57q46 0 68 -31l286 -381l287 381q14 20 24.5 25.5t39.5 5.5h61q52 0 25 -41l-351 -471l373 -500q27 -41 -26 -41h-62q-43 0 -65 31l-308 411l-305 -411q-19 -31 -65 -31h-58q-56 0 -26 41z" />
<glyph unicode="&#x446;" horiz-adv-x="1171" d="M135 37v979q0 37 37 37h66q36 0 36 -37v-889h572v889q0 21 7.5 29t29.5 8h63q37 0 37 -37v-889h113q22 0 29.5 -8t7.5 -29v-338q0 -23 -7 -30t-30 -7h-60q-37 0 -37 37v248h-827q-37 0 -37 37z" />
<glyph unicode="&#x447;" horiz-adv-x="1042" d="M70 758v258q0 37 36 37h66q37 0 37 -37v-254q0 -131 69.5 -192.5t221.5 -61.5q99 0 270 43v465q0 21 7.5 29t27.5 8h65q37 0 37 -37v-979q0 -37 -37 -37h-65q-20 0 -27.5 8t-7.5 29v385q-150 -39 -289 -39q-210 0 -310.5 92.5t-100.5 282.5z" />
<glyph unicode="&#x448;" horiz-adv-x="1562" d="M135 37v979q0 37 37 37h66q36 0 36 -37v-889h439v889q0 20 8.5 28.5t28.5 8.5h63q37 0 37 -37v-889h438v889q0 37 37 37h64q20 0 28 -8.5t8 -28.5v-979q0 -20 -8 -28.5t-28 -8.5h-1217q-37 0 -37 37z" />
<glyph unicode="&#x449;" horiz-adv-x="1613" d="M135 37v979q0 37 37 37h66q36 0 36 -37v-889h439v889q0 20 8.5 28.5t28.5 8.5h63q37 0 37 -37v-889h438v889q0 37 37 37h64q20 0 28 -8.5t8 -28.5v-889h113q37 0 37 -37v-338q0 -37 -37 -37h-59q-39 0 -39 37v248h-1268q-37 0 -37 37z" />
<glyph unicode="&#x44a;" horiz-adv-x="1249" d="M29 963v53q0 20 8.5 28.5t28.5 8.5h364q20 0 28.5 -8.5t8.5 -28.5v-295h356q172 0 269.5 -94.5t97.5 -264.5q0 -171 -97.5 -266.5t-269.5 -95.5h-456q-22 0 -29.5 8t-7.5 29v889h-264q-37 0 -37 37zM467 125h340q113 0 176.5 62.5t63.5 174.5q0 113 -62.5 173.5 t-177.5 60.5h-340v-471z" />
<glyph unicode="&#x44b;" horiz-adv-x="1435" d="M135 37v979q0 37 37 37h66q36 0 36 -37v-295h355q172 0 270 -94.5t98 -264.5q0 -171 -97 -266.5t-271 -95.5h-457q-37 0 -37 37zM274 125h338q115 0 178.5 62t63.5 175q0 111 -63.5 172.5t-178.5 61.5h-338v-471zM1161 37v979q0 37 37 37h66q36 0 36 -37v-979 q0 -37 -36 -37h-66q-37 0 -37 37z" />
<glyph unicode="&#x44c;" horiz-adv-x="1056" d="M135 37v979q0 37 37 37h66q36 0 36 -37v-295h355q172 0 270 -94.5t98 -264.5q0 -171 -97 -266.5t-271 -95.5h-457q-37 0 -37 37zM274 125h338q115 0 178.5 62t63.5 175q0 111 -63.5 172.5t-178.5 61.5h-338v-471z" />
<glyph unicode="&#x44d;" horiz-adv-x="1048" d="M86 260q-16 36 25 51l55 17q36 15 51 -25q65 -209 305 -209q146 0 223.5 72.5t77.5 204.5v104h-415q-37 0 -37 37v49q0 37 37 37h415v86q0 132 -77 204.5t-224 72.5q-127 0 -198 -48t-103 -153q-15 -40 -51 -25l-55 19q-34 15 -25 53q83 276 426 276q219 0 333 -105 t114 -298v-303q0 -194 -112 -300t-325 -106q-346 0 -440 289z" />
<glyph unicode="&#x44e;" horiz-adv-x="1527" d="M135 37v979q0 37 37 37h66q36 0 36 -37v-418h269v113q0 173 117 272.5t321 99.5q208 0 325 -99t117 -273v-369q0 -174 -116.5 -272.5t-325.5 -98.5q-204 0 -321 99t-117 272v129h-269v-434q0 -37 -36 -37h-66q-37 0 -37 37zM682 342q0 -115 81 -180.5t218 -65.5 q141 0 222 65.5t81 180.5v369q0 117 -80.5 182t-222.5 65q-138 0 -218.5 -65.5t-80.5 -181.5v-369z" />
<glyph unicode="&#x44f;" horiz-adv-x="1077" d="M82.5 11q-6.5 11 11.5 34l240 352q-113 23 -177.5 107t-64.5 211q0 158 92 248t252 90h473q37 0 37 -37v-979q0 -20 -8.5 -28.5t-28.5 -8.5h-63q-22 0 -29.5 8t-7.5 29v342h-334l-227 -346q-12 -22 -24 -27.5t-44 -5.5h-59q-32 0 -38.5 11zM236 715q0 -97 58.5 -154 t158.5 -57h356v426h-356q-100 0 -158.5 -58.5t-58.5 -156.5z" />
<glyph unicode="&#x451;" horiz-adv-x="1085" d="M96 385v266q0 206 117 319t336 113t337 -114t118 -310v-112q0 -58 -62 -58h-709v-118q0 -134 79.5 -207.5t228.5 -73.5q226 0 321 170q23 33 60 14l43 -22q37 -19 14 -59q-124 -222 -438 -222q-219 0 -332 109t-113 305zM233 596h633v72q0 141 -81.5 219t-235.5 78 q-152 0 -234 -78t-82 -219v-72zM279 1325v16q0 37 14.5 52.5t50.5 15.5h12q38 0 53 -15.5t15 -52.5v-16q0 -37 -15 -51t-53 -14h-12q-38 0 -51.5 14t-13.5 51zM674 1325v16q0 37 15.5 52.5t53.5 15.5h11q38 0 52.5 -15.5t14.5 -52.5v-16q0 -37 -14.5 -51t-52.5 -14h-11 q-38 0 -53.5 14t-15.5 51z" />
<glyph unicode="&#x2000;" horiz-adv-x="924" />
<glyph unicode="&#x2001;" horiz-adv-x="1848" />
<glyph unicode="&#x2002;" horiz-adv-x="924" />
<glyph unicode="&#x2003;" horiz-adv-x="1848" />
<glyph unicode="&#x2004;" horiz-adv-x="616" />
<glyph unicode="&#x2005;" horiz-adv-x="462" />
<glyph unicode="&#x2006;" horiz-adv-x="308" />
<glyph unicode="&#x2007;" horiz-adv-x="308" />
<glyph unicode="&#x2008;" horiz-adv-x="231" />
<glyph unicode="&#x2009;" horiz-adv-x="369" />
<glyph unicode="&#x200a;" horiz-adv-x="102" />
<glyph unicode="&#x2010;" horiz-adv-x="864" d="M127 518v51q0 41 39 41h530q23 0 32 -9t9 -32v-51q0 -23 -9 -32t-32 -9h-530q-39 0 -39 41z" />
<glyph unicode="&#x2011;" horiz-adv-x="864" d="M127 518v51q0 41 39 41h530q23 0 32 -9t9 -32v-51q0 -23 -9 -32t-32 -9h-530q-39 0 -39 41z" />
<glyph unicode="&#x2012;" horiz-adv-x="864" d="M127 518v51q0 41 39 41h530q23 0 32 -9t9 -32v-51q0 -23 -9 -32t-32 -9h-530q-39 0 -39 41z" />
<glyph unicode="&#x2013;" horiz-adv-x="1177" d="M127 522v51q0 41 39 41h846q23 0 32 -9t9 -32v-51q0 -23 -9 -32t-32 -9h-846q-39 0 -39 41z" />
<glyph unicode="&#x2014;" horiz-adv-x="1585" d="M125 520v53q0 23 9 32t32 9h1253q23 0 32 -9t9 -32v-53q0 -23 -9 -32t-32 -9h-1253q-23 0 -32 9t-9 32z" />
<glyph unicode="&#x2018;" horiz-adv-x="405" d="M123 1085l115 332q15 37 47 37h24q18 0 23.5 -5.5t3.5 -23.5l-70 -340q-4 -26 -15 -35.5t-36 -9.5h-55q-54 0 -37 45z" />
<glyph unicode="&#x2019;" horiz-adv-x="395" d="M113 1069l69 340q4 26 15 35.5t36 9.5h56q54 0 37 -45l-115 -332q-15 -37 -47 -37h-25q-18 0 -23 5.5t-3 23.5z" />
<glyph unicode="&#x201a;" horiz-adv-x="350" d="M111 188q0 37 36 37h60q40 0 37 -37l-25 -409q-6 -37 -41 -37h-31q-36 0 -36 37v409z" />
<glyph unicode="&#x201c;" horiz-adv-x="653" d="M123 1085l115 332q15 37 47 37h24q18 0 23.5 -5.5t3.5 -23.5l-70 -340q-4 -26 -15 -35.5t-36 -9.5h-55q-54 0 -37 45zM369 1085l116 332q15 37 47 37h25q18 0 23.5 -5.5t3.5 -23.5l-70 -340q-4 -26 -15.5 -35.5t-37.5 -9.5h-53q-54 0 -39 45z" />
<glyph unicode="&#x201d;" horiz-adv-x="643" d="M113 1069l69 340q4 26 15 35.5t36 9.5h56q54 0 37 -45l-115 -332q-15 -37 -47 -37h-25q-18 0 -23 5.5t-3 23.5zM360 1069l70 340q4 26 15 35.5t36 9.5h54q29 0 38 -11t0 -34l-114 -332q-15 -37 -47 -37h-25q-33 0 -27 29z" />
<glyph unicode="&#x201e;" horiz-adv-x="618" d="M55 -219l70 340q1 26 12.5 35.5t38.5 9.5h53q56 0 39 -45l-116 -332q-9 -37 -46 -37h-26q-31 0 -25 29zM303 -219l68 340q4 26 15.5 35.5t37.5 9.5h53q56 0 39 -45l-117 -332q-9 -37 -45 -37h-26q-19 0 -24 6t-1 23z" />
<glyph unicode="&#x2022;" horiz-adv-x="622" d="M166 539q0 63 41 105t104 42t104.5 -42t41.5 -105q0 -62 -41 -103q-30 -33 -76 -40t-85.5 8.5t-66 52t-22.5 82.5z" />
<glyph unicode="&#x2026;" horiz-adv-x="1243" d="M102 70v12q0 47 17.5 64.5t64.5 17.5h13q47 0 63 -17t16 -65v-12q0 -47 -17 -64.5t-62 -17.5h-13q-47 0 -64.5 17.5t-17.5 64.5zM535 70v12q0 48 16 65t63 17h13q47 0 64.5 -17.5t17.5 -64.5v-12q0 -44 -19 -63t-63 -19h-13q-47 0 -63 17t-16 65zM965 70v12 q0 47 17.5 64.5t64.5 17.5h12q47 0 63.5 -17t16.5 -65v-12q0 -47 -17.5 -64.5t-62.5 -17.5h-12q-47 0 -64.5 17.5t-17.5 64.5z" />
<glyph unicode="&#x202f;" horiz-adv-x="369" />
<glyph unicode="&#x2039;" horiz-adv-x="688" d="M100 514q-22 22 0 47l412 412q25 28 47 0l41 -41q22 -25 0 -47l-344 -344l342 -342q22 -22 0 -47l-43 -43q-25 -21 -49 0z" />
<glyph unicode="&#x203a;" horiz-adv-x="688" d="M129 885q-22 22 0 47l41 41q25 28 47 0l412 -412q22 -25 0 -47l-406 -405q-25 -21 -49 0l-43 43q-22 25 0 47l342 342z" />
<glyph unicode="&#x205f;" horiz-adv-x="462" />
<glyph unicode="&#x20ac;" horiz-adv-x="1488" d="M72 545l12 39q9 34 49 34h178v197h-131q-37 0 -28 37l12 39q9 35 49 35h96v65q0 230 149.5 362t413.5 132q374 0 502 -242q27 -47 -16 -69l-47 -23q-43 -22 -70 18q-83 177 -369 177q-196 0 -303.5 -92.5t-107.5 -258.5v-69h635q35 0 26 -35l-12 -41q-9 -35 -49 -35h-604 v-197h547q23 0 28.5 -7t-0.5 -27l-12 -41q-9 -35 -49 -35h-510v-53q4 -166 111.5 -256t299.5 -90q292 0 377 190q13 23 27 26.5t39 -8.5l49 -24q46 -21 18 -70q-131 -254 -510 -254q-264 0 -409.5 126.5t-151.5 359.5v53h-211q-37 0 -28 37z" />
<glyph unicode="&#x2122;" horiz-adv-x="1282" d="M88 1370v25q0 19 3.5 23.5t21.5 4.5h417q18 0 22.5 -4.5t4.5 -23.5v-25q0 -17 -5 -22t-22 -5h-163v-409q0 -17 -7 -22t-26 -5h-23q-30 0 -30 27v409h-168q-18 0 -21.5 4t-3.5 23zM608 934v461q0 18 6 23t25 5h14q23 0 35 -18l184 -283l185 281q14 20 33 20h18 q18 0 23.5 -4.5t5.5 -21.5v-463q0 -17 -5 -22t-22 -5h-27q-19 0 -23.5 4.5t-4.5 22.5v231q0 5 4 107q-3 -4 -10.5 -16.5t-17.5 -28.5t-13 -21l-107 -159q-13 -19 -32 -19h-13q-19 0 -30 14l-107 158q-38 57 -43 64q4 -94 4 -99v-231q0 -18 -4 -22.5t-22 -4.5h-27 q-19 0 -24 5t-5 22z" />
<glyph unicode="&#x25fc;" horiz-adv-x="1054" d="M0 0v1055h1055v-1055h-1055z" />
</font>
</defs>
</svg>
